<svg width="45" height="45" viewBox="0 0 45 45" fill="none" xmlns="http://www.w3.org/2000/svg">
<ellipse cx="22.2108" cy="22.5002" rx="22.2108" ry="22.5" fill="#363658"/>
<ellipse cx="22.2106" cy="22.5005" rx="18.9604" ry="19.2073" fill="#43A8D6"/>
<path d="M29.1058 16.6381C31.424 20.0803 32.5832 23.9441 32.1617 28.4049C32.1617 28.4049 32.1617 28.44 32.1265 28.44C30.5811 29.5992 28.8248 30.4773 26.9632 31.0393C26.9281 31.0393 26.8929 31.0393 26.8929 31.0393C26.5066 30.4773 26.1553 29.9153 25.8392 29.3182V29.283C25.8392 29.2479 25.8392 29.2479 25.8743 29.2128C26.4363 29.002 26.9632 28.7562 27.4901 28.44C27.5252 28.44 27.5252 28.44 27.5252 28.4049C27.5252 28.3698 27.5252 28.3698 27.4901 28.3347C27.3847 28.2644 27.2793 28.1942 27.1739 28.0888H27.1388H27.1037C23.7668 29.6343 20.1139 29.6343 16.7419 28.0888C16.7068 28.0888 16.7068 28.0888 16.7068 28.0888C16.6716 28.0888 16.6716 28.0888 16.6716 28.0888C16.5663 28.1942 16.4609 28.2644 16.3555 28.3347C16.3204 28.3698 16.3204 28.3698 16.3204 28.4049C16.3204 28.44 16.3204 28.44 16.3555 28.44C16.8473 28.7562 17.4092 29.002 17.9712 29.2128C17.9712 29.2479 18.0064 29.2479 18.0064 29.283V29.3182C17.6902 29.9153 17.339 30.4773 16.9526 31.0393C16.9175 31.0393 16.9175 31.0393 16.8824 31.0393C14.9856 30.4773 13.2294 29.5992 11.719 28.44C11.6839 28.44 11.6839 28.4049 11.6839 28.4049C11.3327 24.5412 12.0703 20.6423 14.7398 16.6381C14.7398 16.6381 14.7398 16.6381 14.7749 16.6381C16.0745 16.041 17.5146 15.5844 18.9547 15.3385C18.9547 15.3385 18.9547 15.3385 18.9899 15.3385H19.025C19.2357 15.6897 19.4114 16.0761 19.5519 16.4274C20.3246 16.322 21.0974 16.2517 21.9052 16.2517C22.7131 16.2517 23.521 16.322 24.2937 16.4274C24.4342 16.0761 24.6098 15.6897 24.8206 15.3385L24.8557 15.3034C24.8557 15.3034 24.8557 15.3385 24.8908 15.3385C26.331 15.5844 27.7711 16.041 29.0707 16.6381C29.1058 16.6381 29.1058 16.6381 29.1058 16.6381ZM18.4981 26.0516C19.5167 26.0516 20.3597 25.1032 20.3597 23.9792C20.3597 22.8201 19.5519 21.9068 18.4981 21.9068C17.4795 21.9068 16.6365 22.8201 16.6365 23.9792C16.6365 25.1032 17.4795 26.0516 18.4981 26.0516ZM25.3475 26.0516C26.4012 26.0516 27.2091 25.1032 27.2091 23.9792C27.2442 22.8201 26.4012 21.9068 25.3475 21.9068C24.3288 21.9068 23.521 22.8201 23.521 23.9792C23.521 25.1032 24.3288 26.0516 25.3475 26.0516Z" fill="#141821"/>
</svg>
